<svg width="116" height="116" viewBox="0 0 116 116" fill="none" xmlns="http://www.w3.org/2000/svg">
<path fill-rule="evenodd" clip-rule="evenodd" d="M42.001 32.0033C42.0004 32.0015 41.9985 32.0004 41.9967 32.001L8.47968 41.8589C8.21476 41.9368 8.06317 42.2148 8.14108 42.4797V42.4797C8.219 42.7446 8.49693 42.8962 8.76185 42.8183L37.5149 34.3615C40.1038 33.6001 42.7426 35.0876 44.0843 37.4289C46.7857 42.143 50.9288 44.5 57.5 44.5C64.0314 44.5 68.164 41.8804 70.8664 37.3073C72.2203 35.0164 74.8337 33.5817 77.3867 34.3326L106.238 42.8183C106.503 42.8962 106.781 42.7446 106.859 42.4797V42.4797C106.937 42.2148 106.785 41.9368 106.52 41.8589L73.0033 32.001C73.0015 32.0004 72.9996 32.0015 72.999 32.0033L72.9988 32.0041C72.9977 32.0078 72.9923 32.0071 72.9922 32.0033V32.0033C72.9921 32.0014 72.9906 32 72.9888 32H72.2827C72.1235 32 71.9963 32.1318 71.9985 32.291V32.291C71.999 32.3227 71.9939 32.3546 71.9836 32.3847C70.7742 35.9349 69.1401 38.6761 66.8851 40.5421C64.6049 42.429 61.594 43.5 57.5 43.5C53.3791 43.5 50.3713 42.5401 48.1032 40.7201C45.86 38.92 44.226 36.1878 43.015 32.3935C43.0056 32.364 43.0009 32.3328 43.0013 32.3018V32.3018C43.0035 32.1367 42.8716 32 42.7065 32H42.0112C42.0094 32 42.0079 32.0014 42.0078 32.0033V32.0033C42.0077 32.0071 42.0023 32.0078 42.0012 32.0041L42.001 32.0033Z" fill="#0679E4"/>
<path fill-rule="evenodd" clip-rule="evenodd" d="M46.0059 32C46.002 32.1232 46 32.2468 46 32.371C47.8548 38.3065 51.1487 41.2742 57.5 41.2742C63.8513 41.2742 67.1452 37.9355 69 32.371C69 32.2468 68.998 32.1232 68.9941 32H67.9936C67.996 32.07 67.9977 32.1402 67.9988 32.2105C67.1109 34.8138 65.9206 36.7967 64.2986 38.1388C62.6616 39.4935 60.4895 40.2742 57.5 40.2742C54.4837 40.2742 52.3146 39.5723 50.6897 38.2684C49.0803 36.977 47.8905 35.0041 47.0011 32.2201C47.0021 32.1466 47.0039 32.0732 47.0064 32H46.0059Z" fill="#0679E4"/>
<path d="M14.43 59H17.265L12.66 53.18L17.01 48.5H14.31L9.66 53.405V48.5H7.245V59H9.66V56.345L11.07 54.875L14.43 59ZM25.7248 59H28.2748L23.5798 48.5H21.1798L16.4998 59H18.9898L19.9198 56.75H24.7948L25.7248 59ZM20.6998 54.905L22.3648 50.885L24.0298 54.905H20.6998ZM34.3027 59.18C37.6027 59.18 40.0477 56.885 40.0477 53.75C40.0477 50.615 37.6027 48.32 34.3027 48.32C30.9877 48.32 28.5577 50.63 28.5577 53.75C28.5577 56.87 30.9877 59.18 34.3027 59.18ZM34.3027 57.11C32.4277 57.11 31.0177 55.745 31.0177 53.75C31.0177 51.755 32.4277 50.39 34.3027 50.39C36.1777 50.39 37.5877 51.755 37.5877 53.75C37.5877 55.745 36.1777 57.11 34.3027 57.11ZM45.3239 59.18C48.3239 59.18 49.7789 57.68 49.7789 55.925C49.7789 52.07 43.6739 53.405 43.6739 51.47C43.6739 50.81 44.2289 50.27 45.6689 50.27C46.5989 50.27 47.6039 50.54 48.5789 51.095L49.3289 49.25C48.3539 48.635 47.0039 48.32 45.6839 48.32C42.6989 48.32 41.2589 49.805 41.2589 51.59C41.2589 55.49 47.3639 54.14 47.3639 56.105C47.3639 56.75 46.7789 57.23 45.3389 57.23C44.0789 57.23 42.7589 56.78 41.8739 56.135L41.0489 57.965C41.9789 58.685 43.6589 59.18 45.3239 59.18ZM60.2324 48.5H55.6874V59H58.1174V56.105H60.2324C63.0374 56.105 64.7924 54.65 64.7924 52.31C64.7924 49.955 63.0374 48.5 60.2324 48.5ZM60.0974 54.125H58.1174V50.48H60.0974C61.5824 50.48 62.3324 51.155 62.3324 52.31C62.3324 53.45 61.5824 54.125 60.0974 54.125ZM71.7587 59.18C75.0587 59.18 77.5037 56.885 77.5037 53.75C77.5037 50.615 75.0587 48.32 71.7587 48.32C68.4437 48.32 66.0137 50.63 66.0137 53.75C66.0137 56.87 68.4437 59.18 71.7587 59.18ZM71.7587 57.11C69.8837 57.11 68.4737 55.745 68.4737 53.75C68.4737 51.755 69.8837 50.39 71.7587 50.39C73.6337 50.39 75.0437 51.755 75.0437 53.75C75.0437 55.745 73.6337 57.11 71.7587 57.11ZM79.33 59H87.025V57.02H81.76V48.5H79.33V59ZM93.2919 59.18C96.5919 59.18 99.0369 56.885 99.0369 53.75C99.0369 50.615 96.5919 48.32 93.2919 48.32C89.9769 48.32 87.5469 50.63 87.5469 53.75C87.5469 56.87 89.9769 59.18 93.2919 59.18ZM93.2919 57.11C91.4169 57.11 90.0069 55.745 90.0069 53.75C90.0069 51.755 91.4169 50.39 93.2919 50.39C95.1669 50.39 96.5769 51.755 96.5769 53.75C96.5769 55.745 95.1669 57.11 93.2919 57.11ZM104.313 59.18C107.313 59.18 108.768 57.68 108.768 55.925C108.768 52.07 102.663 53.405 102.663 51.47C102.663 50.81 103.218 50.27 104.658 50.27C105.588 50.27 106.593 50.54 107.568 51.095L108.318 49.25C107.343 48.635 105.993 48.32 104.673 48.32C101.688 48.32 100.248 49.805 100.248 51.59C100.248 55.49 106.353 54.14 106.353 56.105C106.353 56.75 105.768 57.23 104.328 57.23C103.068 57.23 101.748 56.78 100.863 56.135L100.038 57.965C100.968 58.685 102.648 59.18 104.313 59.18Z" fill="#0679E4"/>
<path d="M13.72 65H7.66V79H10.9V75.14H13.72C17.46 75.14 19.8 73.2 19.8 70.08C19.8 66.94 17.46 65 13.72 65ZM13.54 72.5H10.9V67.64H13.54C15.52 67.64 16.52 68.54 16.52 70.08C16.52 71.6 15.52 72.5 13.54 72.5ZM34.5131 79L31.3731 74.5C33.1931 73.72 34.2531 72.18 34.2531 70.08C34.2531 66.94 31.9131 65 28.1731 65H22.1131V79H25.3531V75.1H28.1731H28.3331L31.0331 79H34.5131ZM30.9731 70.08C30.9731 71.6 29.9731 72.52 27.9931 72.52H25.3531V67.64H27.9931C29.9731 67.64 30.9731 68.54 30.9731 70.08ZM40.0402 76.4V73.16H46.5402V70.64H40.0402V67.6H47.4002V65H36.8202V79H47.6602V76.4H40.0402ZM66.0181 79L65.9781 65H63.3181L58.1581 73.7L52.9181 65H50.2381V79H53.2781V70.78L57.3781 77.52H58.8381L62.9581 70.6L62.9781 79H66.0181ZM69.3397 79H72.5797V65H69.3397V79ZM82.1222 79.24C86.1022 79.24 88.4622 76.96 88.4622 72.84V65H85.2622V72.72C85.2622 75.38 84.1222 76.48 82.1422 76.48C80.1822 76.48 79.0222 75.38 79.0222 72.72V65H75.7822V72.84C75.7822 76.96 78.1422 79.24 82.1222 79.24ZM107.444 79L107.404 65H104.744L99.5839 73.7L94.3439 65H91.6639V79H94.7039V70.78L98.8039 77.52H100.264L104.384 70.6L104.404 79H107.444Z" fill="#0679E4"/>
</svg>
